<!-- Created with Inkscape (http://www.inkscape.org/) --><svg xmlns:inkscape="http://www.inkscape.org/namespaces/inkscape" xmlns:sodipodi="http://sodipodi.sourceforge.net/DTD/sodipodi-0.dtd" xmlns="http://www.w3.org/2000/svg" xmlns:svg="http://www.w3.org/2000/svg" version="1.1" id="svg840" xml:space="preserve" width="467.31702" height="144.12331" viewBox="0 0 467.31702 144.12331" sodipodi:docname="multipage-export-l5uoq8c8.svg"><defs id="defs844"/><sodipodi:namedview id="namedview842" pagecolor="#ffffff" bordercolor="#666666" borderopacity="1.0" inkscape:pageshadow="2" inkscape:pageopacity="0.0" inkscape:pagecheckerboard="0" showgrid="false" inkscape:zoom="0.70262792" inkscape:cx="1359.8947" inkscape:cy="765.69687" inkscape:window-width="1904" inkscape:window-height="1003" inkscape:window-x="1928" inkscape:window-y="32" inkscape:window-maximized="0" inkscape:current-layer="g848"/><g id="g846" inkscape:groupmode="layer" inkscape:label="ink_ext_XXXXXX" transform="matrix(1.3333333,0,0,-1.3333333,-393.11388,3864.5293)"><g id="g848" transform="scale(0.1)"><g id="g4359"><g id="g954" transform="scale(1.77448)"><path d="m 1948.24,15758.4 -270.77,270.8 270.77,270.8" style="fill:none;stroke:#ffd58c;stroke-width:22.5419;stroke-linecap:butt;stroke-linejoin:miter;stroke-miterlimit:10;stroke-dasharray:none;stroke-opacity:1" id="path956"/></g><g id="g958" transform="scale(1.77729)"><path d="m 1919.35,16068.3 -115.83,115.9 115.83,115.8 49.97,-50 h 266.32 l 44.37,-44.3" style="fill:none;stroke:#ffd58c;stroke-width:11.2531;stroke-linecap:butt;stroke-linejoin:miter;stroke-miterlimit:10;stroke-dasharray:none;stroke-opacity:1" id="path960"/></g><g id="g962" transform="scale(1.73797)"><path d="m 1962.78,16300 -118.46,-118.5 118.46,-118.4 51.1,51.1 h 272.34 l 45.37,45.4" style="fill:none;stroke:#ffd58c;stroke-width:11.5077;stroke-linecap:butt;stroke-linejoin:miter;stroke-miterlimit:10;stroke-dasharray:none;stroke-opacity:1" id="path964"/></g><g id="g966" transform="scale(1.75469)"><path d="m 1846.9,16300 -90.07,-90.1 90.07,-90.1 90.08,90.1 z m 0,-32.2 57.85,-57.9 -57.85,-57.8 -57.84,57.8 57.84,57.9" style="fill:#ffd58c;fill-opacity:1;fill-rule:nonzero;stroke:none" id="path968"/></g><g id="g970" transform="scale(1.77448)"><path d="m 3349.97,15758.4 270.78,270.8 -270.78,270.8" style="fill:none;stroke:#ffd58c;stroke-width:22.5419;stroke-linecap:butt;stroke-linejoin:miter;stroke-miterlimit:10;stroke-dasharray:none;stroke-opacity:1" id="path972"/></g><g id="g974" transform="scale(1.77729)"><path d="m 3370.47,16068.3 115.84,115.9 -115.84,115.8 -49.97,-50 h -266.32 l -44.36,-44.3" style="fill:none;stroke:#ffd58c;stroke-width:11.2531;stroke-linecap:butt;stroke-linejoin:miter;stroke-miterlimit:10;stroke-dasharray:none;stroke-opacity:1" id="path976"/></g><g id="g978" transform="scale(1.73797)"><path d="m 3446.73,16300 118.46,-118.5 -118.46,-118.4 -51.1,51.1 h -272.35 l -45.36,45.4" style="fill:none;stroke:#ffd58c;stroke-width:11.5077;stroke-linecap:butt;stroke-linejoin:miter;stroke-miterlimit:10;stroke-dasharray:none;stroke-opacity:1" id="path980"/></g><g id="g982" transform="scale(1.75469)"><path d="m 3511.03,16300 -90.07,-90.1 90.07,-90.1 90.09,90.1 z m 0,-32.2 57.85,-57.9 -57.85,-57.8 -57.84,57.8 57.84,57.9" style="fill:#ffd58c;fill-opacity:1;fill-rule:nonzero;stroke:none" id="path984"/></g></g></g></g></svg>